<svg xmlns="http://www.w3.org/2000/svg" viewBox="0 0 1290 2796" width="1290" height="2796">
  <path d="M 364.0 288.0 C 367.7 288.0 380.8 287.7 386.0 288.0 C 391.2 288.3 390.5 288.3 395.0 290.0 C 399.5 291.7 408.8 295.8 413.0 298.0 C 417.2 300.2 407.8 289.5 420.0 303.0 C 432.2 316.5 465.0 355.5 486.0 379.0 C 507.0 402.5 546.0 444.0 546.0 444.0 L 482.0 587.0 C 482.0 587.0 457.0 562.2 439.0 543.0 C 421.0 523.8 394.3 494.8 374.0 472.0 C 353.7 449.2 328.7 420.3 317.0 406.0 C 305.3 391.7 306.8 391.5 304.0 386.0 C 301.2 380.5 300.8 377.5 300.0 373.0 C 299.2 368.5 298.7 364.3 299.0 359.0 C 299.3 353.7 300.3 346.7 302.0 341.0 C 303.7 335.3 306.7 329.3 309.0 325.0 C 311.3 320.7 312.5 318.8 316.0 315.0 C 319.5 311.2 325.0 305.7 330.0 302.0 C 335.0 298.3 340.3 295.3 346.0 293.0 C 351.7 290.7 361.0 288.8 364.0 288.0 C 367.0 287.2 360.3 288.0 364.0 288.0 Z" fill="#d08000" />
  <path d="M 631.0 344.0 C 740.3 346.7 1287.0 360.0 1287.0 360.0 L 1287.0 437.0 C 1287.0 437.0 721.3 417.2 607.0 413.0 C 492.7 408.8 601.0 412.0 601.0 412.0 L 597.0 408.0 C 597.0 408.0 593.3 410.3 597.0 401.0 C 600.7 391.7 619.0 352.0 619.0 352.0 C 619.0 352.0 629.0 345.3 631.0 344.0 C 633.0 342.7 521.7 341.3 631.0 344.0 Z" fill="#d08000" />
  <path d="M 1259.0 989.0 C 1263.7 991.3 1287.0 1003.0 1287.0 1003.0 L 1287.0 1162.0 L 1212.0 1125.0 C 1212.0 1125.0 1251.2 1011.7 1259.0 989.0 C 1266.8 966.3 1254.3 986.7 1259.0 989.0 Z" fill="#d08000" />
  <path d="M 1082.0 1500.0 C 1098.0 1500.3 1143.8 1500.5 1178.0 1502.0 C 1212.2 1503.5 1287.0 1509.0 1287.0 1509.0 L 1287.0 1655.0 C 1287.0 1655.0 1270.2 1652.5 1250.0 1651.0 C 1229.8 1649.5 1202.3 1647.2 1166.0 1646.0 C 1129.7 1644.8 1032.0 1644.0 1032.0 1644.0 C 1032.0 1644.0 1073.7 1524.0 1082.0 1500.0 C 1090.3 1476.0 1066.0 1499.7 1082.0 1500.0 Z" fill="#d08000" />
</svg>
